# Made in Blockbench 4.9.4
mtllib arbol.mtl

o cylinder
v 0 0.375 0
v 0 1.1875 0
v 0.13397459621556132 0.5 0.49999999999999994
v 0.13397459621556132 1 0.49999999999999994
v 0.3660254037844386 0.5 0.36602540378443865
v 0.3660254037844386 1 0.36602540378443865
v 0.49999999999999994 0.5 0.13397459621556132
v 0.49999999999999994 1 0.13397459621556132
v 0.49999999999999994 0.5 -0.13397459621556138
v 0.49999999999999994 1 -0.13397459621556138
v 0.36602540378443865 0.5 -0.3660254037844386
v 0.36602540378443865 1 -0.3660254037844386
v 0.1339745962155615 0.5 -0.4999999999999999
v 0.1339745962155615 1 -0.4999999999999999
v -0.13397459621556113 0.5 -0.5
v -0.13397459621556113 1 -0.5
v -0.3660254037844386 0.5 -0.3660254037844387
v -0.3660254037844386 1 -0.3660254037844387
v -0.49999999999999994 0.5 -0.13397459621556126
v -0.49999999999999994 1 -0.13397459621556126
v -0.5 0.5 0.1339745962155611
v -0.5 1 0.1339745962155611
v -0.3660254037844387 0.5 0.36602540378443854
v -0.3660254037844387 1 0.36602540378443854
v -0.1339745962155613 0.5 0.49999999999999994
v -0.1339745962155613 1 0.49999999999999994
v 0 0 0
v 0 0.5 0
v 0.05076870253639161 0 0.15624999999999997
v 0.05076870253639161 0.5 0.15624999999999997
v 0.13291418880500624 0 0.09656781074217108
v 0.13291418880500624 0.5 0.09656781074217108
v 0.16429097253722924 0 1.0059920682326176e-17
v 0.16429097253722924 0.5 1.0059920682326176e-17
v 0.13291418880500624 0 -0.09656781074217105
v 0.13291418880500624 0.5 -0.09656781074217105
v 0.050768702536391624 0 -0.15624999999999997
v 0.050768702536391624 0.5 -0.15624999999999997
v -0.05076870253639166 0 -0.15624999999999997
v -0.05076870253639166 0.5 -0.15624999999999997
v -0.13291418880500622 0 -0.09656781074217109
v -0.13291418880500622 0.5 -0.09656781074217109
v -0.16429097253722924 0 -3.017976204697852e-17
v -0.16429097253722924 0.5 -3.017976204697852e-17
v -0.13291418880500627 0 0.09656781074217104
v -0.13291418880500627 0.5 0.09656781074217104
v -0.05076870253639165 0 0.15624999999999997
v -0.05076870253639165 0.5 0.15624999999999997
vt 0.44161043588291027 0.7314607909444681
vt 0.383103125 0.7640831717512162
vt 0.34960937500000006 0.6352362967512162
vt 0.43193125 0.875
vt 0.49891875 0.875
vt 0.49891875 1
vt 0.43193125 1
vt 0.1702125 0.7290632099182636
vt 0.22926626361770716 0.7606856411789047
vt 0.13671875 0.8625632099182636
vt 0.4768242548379247 0.6744755989130862
vt 0.4416104358829103 0.7314607909444681
vt 0.3496093750000001 0.6352362967512162
vt 0.001081249999999992 0.578125
vt 0.06806875 0.578125
vt 0.06806875 0.703125
vt 0.001081249999999992 0.703125
vt 0.2292662636177072 0.7606856411789047
vt 0.2663980992375178 0.8164400306003068
vt 0.13671875 0.8625632099182636
vt 0.47982889328811523 0.607555517442472
vt 0.4768242548379247 0.6744755989130862
vt 0.3496093750000001 0.6352362967512161
vt 0.06806875 0.578125
vt 0.13505625 0.578125
vt 0.13505625 0.703125
vt 0.06806875 0.703125
vt 0.2663980992375178 0.8164400306003068
vt 0.2728125093353204 0.8831197164075091
vt 0.13671875000000003 0.8625632099182636
vt 0.4498636152070264 0.5476438552574432
vt 0.47982889328811523 0.607555517442472
vt 0.34960937500000017 0.635236296751216
vt 0.13505625 0.578125
vt 0.20204375000000002 0.578125
vt 0.20204375000000002 0.703125
vt 0.13505625 0.703125
vt 0.2728125093353204 0.8831197164075091
vt 0.24699009883699274 0.9449301384438117
vt 0.13671875000000003 0.8625632099182635
vt 0.39451524575080865 0.5099094789569394
vt 0.4498636152070264 0.5476438552574432
vt 0.34960937500000017 0.635236296751216
vt 0.46983125 0.734375
vt 0.53681875 0.734375
vt 0.53681875 0.859375
vt 0.46983125 0.859375
vt 0.24699009883699274 0.9449301384438117
vt 0.1950474774876091 0.9872301295029663
vt 0.13671875000000003 0.8625632099182635
vt 0.32779728416368753 0.50390625
vt 0.39451524575080865 0.5099094789569394
vt 0.3496093750000001 0.635236296751216
vt 0.53681875 0.734375
vt 0.60380625 0.734375
vt 0.60380625 0.859375
vt 0.53681875 0.859375
vt 0.14414909461456543 1
vt 0.0783900225123909 0.9872301295029663
vt 0.13671874999999994 0.8625632099182635
vt 0.2493551347929736 0.5476438552574432
vt 0.30470350424919135 0.5099094789569394
vt 0.34960937499999983 0.635236296751216
vt 0.60380625 0.734375
vt 0.6707937500000001 0.734375
vt 0.6707937500000001 0.859375
vt 0.60380625 0.859375
vt 0.07839002251239091 0.9872301295029663
vt 0.026447401163007242 0.9449301384438117
vt 0.13671874999999997 0.8625632099182635
vt 0.21938985671188477 0.607555517442472
vt 0.2493551347929736 0.5476438552574432
vt 0.34960937499999983 0.635236296751216
vt 0.001081249999999992 0.4375
vt 0.06806875 0.4375
vt 0.06806875 0.5625
vt 0.001081249999999992 0.5625
vt 0.026447401163007242 0.9449301384438117
vt 0.0006249906646795811 0.8831197164075091
vt 0.13671874999999997 0.8625632099182635
vt 0.22239449516207532 0.6744755989130862
vt 0.2193898567118848 0.607555517442472
vt 0.3496093749999999 0.6352362967512161
vt 0.06806875 0.4375
vt 0.13505625 0.4375
vt 0.13505625 0.5625
vt 0.06806875 0.5625
vt 0.0006249906646796088 0.8831197164075091
vt 0.0070394007624822175 0.8164400306003068
vt 0.13671874999999997 0.8625632099182636
vt 0.2576083141170897 0.7314607909444681
vt 0.22239449516207532 0.6744755989130862
vt 0.3496093749999999 0.6352362967512162
vt 0.13505625 0.4375
vt 0.20204375000000002 0.4375
vt 0.20204375000000002 0.5625
vt 0.13505625 0.5625
vt 0.0070394007624822175 0.8164400306003068
vt 0.044171236382292825 0.7606856411789047
vt 0.13671875 0.8625632099182636
vt 0.316115625 0.7640831717512162
vt 0.25760831411708973 0.7314607909444681
vt 0.34960937499999994 0.6352362967512162
vt 0.29795625 0.875
vt 0.36494375 0.875
vt 0.36494375 1
vt 0.29795625 1
vt 0.04417123638229284 0.7606856411789047
vt 0.103225 0.7290632099182636
vt 0.13671875 0.8625632099182636
vt 0.383103125 0.7640831717512162
vt 0.316115625 0.7640831717512162
vt 0.349609375 0.6352362967512162
vt 0.36494375 0.875
vt 0.43193125 0.875
vt 0.43193125 1
vt 0.36494375 1
vt 0.103225 0.7290632099182636
vt 0.1702125 0.7290632099182636
vt 0.13671875 0.8625632099182636
vt 0.373071875 0.8444546875
vt 0.3525359375 0.859375
vt 0.33984375 0.8203125
vt 0.541015625 0.875
vt 0.5664 0.875
vt 0.5664 1
vt 0.541015625 1
vt 0.5556609375 0.640625
vt 0.5761968749999999 0.6555453125
vt 0.54296875 0.6796875
vt 0.38091718750000003 0.8203125
vt 0.373071875 0.8444546875
vt 0.33984375 0.8203125
vt 0.29688749999999997 0.359375
vt 0.322271875 0.359375
vt 0.322271875 0.484375
vt 0.29688749999999997 0.484375
vt 0.5761968749999999 0.6555453125
vt 0.5840421875 0.6796875
vt 0.54296875 0.6796875
vt 0.373071875 0.7961703125
vt 0.38091718750000003 0.8203125
vt 0.33984375 0.8203125
vt 0.322271875 0.359375
vt 0.34765625 0.359375
vt 0.34765625 0.484375
vt 0.322271875 0.484375
vt 0.5840421875 0.6796875
vt 0.5761968749999999 0.7038296875000001
vt 0.54296875 0.6796875
vt 0.3525359375 0.78125
vt 0.373071875 0.7961703125
vt 0.33984375 0.8203125
vt 0.4697359375 0.40625
vt 0.4951203125 0.40625
vt 0.4951203125 0.53125
vt 0.4697359375 0.53125
vt 0.5761968749999999 0.7038296875000001
vt 0.5556609375 0.71875
vt 0.54296875 0.6796875
vt 0.3271515625 0.78125
vt 0.3525359375 0.78125
vt 0.33984375 0.8203125
vt 0.4951203125 0.40625
vt 0.5205046875 0.40625
vt 0.5205046875 0.53125
vt 0.4951203125 0.53125
vt 0.5556609375 0.71875
vt 0.5302765625 0.71875
vt 0.54296875 0.6796875
vt 0.306615625 0.7961703125
vt 0.3271515625 0.78125
vt 0.33984375 0.8203125
vt 0.5205046875 0.40625
vt 0.5458890625 0.40625
vt 0.5458890625 0.53125
vt 0.5205046875 0.53125
vt 0.5302765625 0.71875
vt 0.5097406250000001 0.7038296875000001
vt 0.54296875 0.6796875
vt 0.2987703125 0.8203125
vt 0.306615625 0.7961703125
vt 0.33984375 0.8203125
vt 0.21875 0.359375
vt 0.24413437500000001 0.359375
vt 0.24413437500000001 0.484375
vt 0.21875 0.484375
vt 0.5097406250000001 0.7038296875000001
vt 0.5018953125 0.6796875
vt 0.54296875 0.6796875
vt 0.306615625 0.8444546875
vt 0.2987703125 0.8203125
vt 0.33984375 0.8203125
vt 0.24413437500000001 0.359375
vt 0.26951875000000003 0.359375
vt 0.26951875000000003 0.484375
vt 0.24413437500000001 0.484375
vt 0.5018953125 0.6796875
vt 0.5097406250000001 0.6555453125
vt 0.54296875 0.6796875
vt 0.3271515625 0.859375
vt 0.306615625 0.8444546875
vt 0.33984375 0.8203125
vt 0.421875 0.375
vt 0.453125 0.375
vt 0.453125 0.5
vt 0.421875 0.5
vt 0.5097406250000001 0.6555453125
vt 0.5302765625 0.640625
vt 0.54296875 0.6796875
vt 0.3525359375 0.859375
vt 0.3271515625 0.859375
vt 0.33984375 0.8203125
vt 0.51563125 0.875
vt 0.541015625 0.875
vt 0.541015625 1
vt 0.51563125 1
vt 0.5302765625 0.640625
vt 0.5556609375 0.640625
vt 0.54296875 0.6796875
vn 0.12126781251816647 -0.970142500145332 0.21004201260420152
vn 0.4999999999999999 0 0.8660254037844388
vn 0.17556172079419582 0.9363291775690445 0.3040818202797687
vn 0.21004201260420155 -0.970142500145332 0.1212678125181665
vn 0.8660254037844388 0 0.5
vn 0.30408182027976877 0.9363291775690447 0.17556172079419585
vn 0.24253562503633305 -0.970142500145332 0
vn 1 0 0
vn 0.35112344158839176 0.9363291775690447 0
vn 0.21004201260420152 -0.970142500145332 -0.1212678125181665
vn 0.8660254037844388 0 -0.5
vn 0.30408182027976877 0.9363291775690445 -0.17556172079419585
vn 0.12126781251816653 -0.970142500145332 -0.2100420126042015
vn 0.5000000000000001 0 -0.8660254037844388
vn 0.17556172079419585 0.9363291775690445 -0.30408182027976866
vn 1.0049242274779652e-16 -0.970142500145332 -0.24253562503633305
vn 4.143408735633879e-16 0 -1
vn 1.4548479351631743e-16 0.9363291775690445 -0.3511234415883917
vn -0.1212678125181664 -0.970142500145332 -0.21004201260420158
vn -0.4999999999999996 0 -0.8660254037844389
vn -0.1755617207941957 0.9363291775690447 -0.3040818202797688
vn -0.21004201260420155 -0.970142500145332 -0.12126781251816646
vn -0.8660254037844389 0 -0.4999999999999998
vn -0.30408182027976877 0.9363291775690444 -0.17556172079419577
vn -0.242535625036333 -0.970142500145332 -5.024621137389829e-17
vn -1 0 -2.0717043678169412e-16
vn -0.35112344158839176 0.9363291775690445 -7.274239675815878e-17
vn -0.21004201260420155 -0.970142500145332 0.1212678125181664
vn -0.8660254037844389 0 0.4999999999999996
vn -0.3040818202797689 0.9363291775690445 0.17556172079419574
vn -0.1212678125181665 -0.970142500145332 0.21004201260420152
vn -0.4999999999999999 0 0.8660254037844386
vn -0.17556172079419585 0.9363291775690447 0.30408182027976877
vn 0 -0.970142500145332 0.24253562503633305
vn 0 0 1
vn 0 0.9363291775690445 0.35112344158839176
vn 0 -1 0
vn 0.5877852522924729 0 0.8090169943749478
vn 0 1 0
vn 0 -1 0
vn 0.9510565162951538 0 0.30901699437494734
vn 0 1 0
vn 0 -1 0
vn 0.9510565162951538 0 -0.30901699437494734
vn 0 1 0
vn 0 -1 0
vn 0.5877852522924731 0 -0.8090169943749477
vn 0 1 0
vn 0 -1 0
vn 0 0 -1
vn 0 1 0
vn 0 -1 0
vn -0.5877852522924731 0 -0.8090169943749477
vn 0 1 0
vn 0 -1 0
vn -0.9510565162951535 0 -0.30901699437494756
vn 0 1 0
vn 0 -1 0
vn -0.9510565162951538 0 0.30901699437494706
vn 0 1 0
vn 0 -1 0
vn -0.5877852522924732 0 0.8090169943749475
vn 0 1 0
vn 0 -1 0
vn 0 0 1
vn 0 1 0
usemtl m_b04ad31b-17bf-d438-188a-f3901083f74d
f 5/1/1 3/2/1 1/3/1
f 3/4/2 5/5/2 6/6/2 4/7/2
f 4/8/3 6/9/3 2/10/3
f 7/11/4 5/12/4 1/13/4
f 5/14/5 7/15/5 8/16/5 6/17/5
f 6/18/6 8/19/6 2/20/6
f 9/21/7 7/22/7 1/23/7
f 7/24/8 9/25/8 10/26/8 8/27/8
f 8/28/9 10/29/9 2/30/9
f 11/31/10 9/32/10 1/33/10
f 9/34/11 11/35/11 12/36/11 10/37/11
f 10/38/12 12/39/12 2/40/12
f 13/41/13 11/42/13 1/43/13
f 11/44/14 13/45/14 14/46/14 12/47/14
f 12/48/15 14/49/15 2/50/15
f 15/51/16 13/52/16 1/53/16
f 13/54/17 15/55/17 16/56/17 14/57/17
f 14/58/18 16/59/18 2/60/18
f 17/61/19 15/62/19 1/63/19
f 15/64/20 17/65/20 18/66/20 16/67/20
f 16/68/21 18/69/21 2/70/21
f 19/71/22 17/72/22 1/73/22
f 17/74/23 19/75/23 20/76/23 18/77/23
f 18/78/24 20/79/24 2/80/24
f 21/81/25 19/82/25 1/83/25
f 19/84/26 21/85/26 22/86/26 20/87/26
f 20/88/27 22/89/27 2/90/27
f 23/91/28 21/92/28 1/93/28
f 21/94/29 23/95/29 24/96/29 22/97/29
f 22/98/30 24/99/30 2/100/30
f 25/101/31 23/102/31 1/103/31
f 23/104/32 25/105/32 26/106/32 24/107/32
f 24/108/33 26/109/33 2/110/33
f 3/111/34 25/112/34 1/113/34
f 25/114/35 3/115/35 4/116/35 26/117/35
f 26/118/36 4/119/36 2/120/36
f 31/121/37 29/122/37 27/123/37
f 29/124/38 31/125/38 32/126/38 30/127/38
f 30/128/39 32/129/39 28/130/39
f 33/131/40 31/132/40 27/133/40
f 31/134/41 33/135/41 34/136/41 32/137/41
f 32/138/42 34/139/42 28/140/42
f 35/141/43 33/142/43 27/143/43
f 33/144/44 35/145/44 36/146/44 34/147/44
f 34/148/45 36/149/45 28/150/45
f 37/151/46 35/152/46 27/153/46
f 35/154/47 37/155/47 38/156/47 36/157/47
f 36/158/48 38/159/48 28/160/48
f 39/161/49 37/162/49 27/163/49
f 37/164/50 39/165/50 40/166/50 38/167/50
f 38/168/51 40/169/51 28/170/51
f 41/171/52 39/172/52 27/173/52
f 39/174/53 41/175/53 42/176/53 40/177/53
f 40/178/54 42/179/54 28/180/54
f 43/181/55 41/182/55 27/183/55
f 41/184/56 43/185/56 44/186/56 42/187/56
f 42/188/57 44/189/57 28/190/57
f 45/191/58 43/192/58 27/193/58
f 43/194/59 45/195/59 46/196/59 44/197/59
f 44/198/60 46/199/60 28/200/60
f 47/201/61 45/202/61 27/203/61
f 45/204/62 47/205/62 48/206/62 46/207/62
f 46/208/63 48/209/63 28/210/63
f 29/211/64 47/212/64 27/213/64
f 47/214/65 29/215/65 30/216/65 48/217/65
f 48/218/66 30/219/66 28/220/66