# Made in Blockbench 4.9.4
mtllib cojenobasic.mtl

o cuboid
v 0.5 1 -0.06249999999999989
v -0.5 1 -0.06250000000000011
v 0.5 0 -0.06249999999999989
v -0.5 0 -0.06250000000000011
v 0.5 1 0.06250000000000011
v -0.5 1 0.06249999999999989
v 0.5 0 0.06250000000000011
v -0.5 0 0.06249999999999989
vt 0.25 1
vt 0 1
vt 0 0.75
vt 0.25 0.75
vt 0.25 0.484375
vt 0.25 0.734375
vt 0 0.734375
vt 0 0.484375
vt 0.265625 0.75
vt 0.296875 0.75
vt 0.296875 1
vt 0.265625 1
vt 0.296875 0.484375
vt 0.296875 0.734375
vt 0.265625 0.734375
vt 0.265625 0.484375
vt 0.34375 0.75
vt 0.34375 1
vt 0.3125 1
vt 0.3125 0.75
vt 0.34375 0.734375
vt 0.3125 0.734375
vt 0.3125 0.484375
vt 0.34375 0.484375
vn 2.220446049250313e-16 0 -1
vn -2.220446049250313e-16 0 1
vn 0 1 0
vn 0 -1 0
vn 1 0 2.220446049250313e-16
vn -1 0 -2.220446049250313e-16
usemtl m_434ac829-a48f-59cb-4b01-3713fbdf2b8e
f 2/1/1 1/2/1 3/3/1 4/4/1
f 7/5/2 5/6/2 6/7/2 8/8/2
f 5/9/3 1/10/3 2/11/3 6/12/3
f 4/13/4 3/14/4 7/15/4 8/16/4
f 3/17/5 1/18/5 5/19/5 7/20/5
f 6/21/6 2/22/6 4/23/6 8/24/6