# Made in Blockbench 4.9.4
mtllib flor.mtl

o cylinder
v 0 0 0
v 0 0.3125 0
v 0.011792195912175802 0 0.01875
v 0.011792195912175802 0.3125 0.01875
v 0.023584391824351607 0 1.3257190484061335e-18
v 0.023584391824351607 0.3125 1.3257190484061335e-18
v 0.011792195912175802 0 -0.01875
v 0.011792195912175802 0.3125 -0.01875
v -0.011792195912175807 0 -0.018749999999999996
v -0.011792195912175807 0.3125 -0.018749999999999996
v -0.023584391824351607 0 -3.9771571452184005e-18
v -0.023584391824351607 0.3125 -3.9771571452184005e-18
v -0.011792195912175816 0 0.018749999999999992
v -0.011792195912175816 0.3125 0.018749999999999992
vt 0.27741875 0.9546875
vt 0.271521875 0.9640625
vt 0.265625 0.9546875
vt 0.15625 0.84375
vt 0.1875 0.84375
vt 0.1875 1
vt 0.15625 1
vt 0.084021875 0.73125
vt 0.08991874999999999 0.740625
vt 0.078125 0.740625
vt 0.271521875 0.9453125
vt 0.27741875 0.9546875
vt 0.265625 0.9546875
vt 0.09375 0.6875
vt 0.125 0.6875
vt 0.125 0.84375
vt 0.09375 0.84375
vt 0.08991874999999999 0.740625
vt 0.084021875 0.75
vt 0.078125 0.740625
vt 0.259728125 0.9453125
vt 0.271521875 0.9453125
vt 0.265625 0.9546875
vt 0.09375 0.84375
vt 0.125 0.84375
vt 0.125 1
vt 0.09375 1
vt 0.084021875 0.75
vt 0.072228125 0.75
vt 0.078125 0.740625
vt 0.25383125 0.9546875
vt 0.259728125 0.9453125
vt 0.265625 0.9546875
vt 0.125 0.6875
vt 0.15625 0.6875
vt 0.15625 0.84375
vt 0.125 0.84375
vt 0.072228125 0.75
vt 0.06633125 0.740625
vt 0.078125 0.740625
vt 0.259728125 0.9640625
vt 0.25383125 0.9546875
vt 0.265625 0.9546875
vt 0.15625 0.6875
vt 0.1875 0.6875
vt 0.1875 0.84375
vt 0.15625 0.84375
vt 0.06633125 0.740625
vt 0.072228125 0.73125
vt 0.078125 0.740625
vt 0.271521875 0.9640625
vt 0.259728125 0.9640625
vt 0.265625 0.9546875
vt 0.125 0.84375
vt 0.15625 0.84375
vt 0.15625 1
vt 0.125 1
vt 0.072228125 0.73125
vt 0.084021875 0.73125
vt 0.078125 0.740625
vn 0 -1 0
vn 0.8465046791123592 0 0.5323812808888775
vn 0 1 0
vn 0 -1 0
vn 0.8465046791123592 0 -0.5323812808888775
vn 0 1 0
vn 0 -1 0
vn -1.47107755747651e-16 0 -1
vn 0 1 0
vn 0 -1 0
vn -0.8465046791123592 0 -0.5323812808888775
vn 0 1 0
vn 0 -1 0
vn -0.8465046791123594 0 0.5323812808888772
vn 0 1 0
vn 0 -1 0
vn -2.942155114953019e-16 0 1
vn 0 1 0
usemtl m_815d0feb-a7e2-9791-6e43-744fe07e76df
f 5/1/1 3/2/1 1/3/1
f 3/4/2 5/5/2 6/6/2 4/7/2
f 4/8/3 6/9/3 2/10/3
f 7/11/4 5/12/4 1/13/4
f 5/14/5 7/15/5 8/16/5 6/17/5
f 6/18/6 8/19/6 2/20/6
f 9/21/7 7/22/7 1/23/7
f 7/24/8 9/25/8 10/26/8 8/27/8
f 8/28/9 10/29/9 2/30/9
f 11/31/10 9/32/10 1/33/10
f 9/34/11 11/35/11 12/36/11 10/37/11
f 10/38/12 12/39/12 2/40/12
f 13/41/13 11/42/13 1/43/13
f 11/44/14 13/45/14 14/46/14 12/47/14
f 12/48/15 14/49/15 2/50/15
f 3/51/16 13/52/16 1/53/16
f 13/54/17 3/55/17 4/56/17 14/57/17
f 14/58/18 4/59/18 2/60/18
o cylinder
v 0.03125000000000007 0.3125 0
v -0.03124999999999993 0.3125 0
v 0.031250000000000076 0.3513325214724777 0.09375
v -0.031249999999999924 0.3513325214724777 0.09375
v 0.03125000000000009 0.40625 0.03883252147247767
v -0.03124999999999991 0.40625 0.03883252147247767
v 0.03125000000000009 0.40625 -0.03883252147247766
v -0.03124999999999991 0.40625 -0.03883252147247766
v 0.031250000000000076 0.3513325214724777 -0.09375
v -0.031249999999999924 0.3513325214724777 -0.09375
v 0.03125000000000006 0.2736674785275224 -0.09375000000000001
v -0.031249999999999938 0.2736674785275224 -0.09375000000000001
v 0.03125000000000005 0.21875 -0.038832521472477725
v -0.03124999999999995 0.21875 -0.038832521472477725
v 0.03125000000000005 0.21875 0.038832521472477684
v -0.03124999999999995 0.21875 0.038832521472477684
v 0.03125000000000006 0.27366747852752227 0.09374999999999999
v -0.031249999999999938 0.27366747852752227 0.09374999999999999
vt 0.09375 0.972540625
vt 0.06629062499999999 1
vt 0.046875 0.953125
vt 0.21875 0.90625
vt 0.25 0.90625
vt 0.25 0.9375
vt 0.21875 0.9375
vt 0.06629062499999999 0.8125
vt 0.09375 0.8399593750000001
vt 0.046875 0.859375
vt 0.09375 0.9337093750000001
vt 0.09375 0.972540625
vt 0.046875 0.953125
vt 0.0625 0.78125
vt 0.09375 0.78125
vt 0.09375 0.8125
vt 0.0625 0.8125
vt 0.09375 0.8399593750000001
vt 0.09375 0.8787906249999999
vt 0.046875 0.859375
vt 0.06629062499999999 0.90625
vt 0.09375 0.9337093750000001
vt 0.046875 0.953125
vt 0.0625 0.75
vt 0.09375 0.75
vt 0.09375 0.78125
vt 0.0625 0.78125
vt 0.09375 0.8787906249999999
vt 0.06629062499999999 0.90625
vt 0.046875 0.859375
vt 0.027459375000000008 0.90625
vt 0.06629062499999999 0.90625
vt 0.046875 0.953125
vt 0.1875 0.8125
vt 0.21875 0.8125
vt 0.21875 0.84375
vt 0.1875 0.84375
vt 0.06629062499999999 0.90625
vt 0.027459375000000008 0.90625
vt 0.046875 0.859375
vt 0 0.9337093750000001
vt 0.027459375000000008 0.90625
vt 0.046875 0.953125
vt 0.21875 0.875
vt 0.25 0.875
vt 0.25 0.90625
vt 0.21875 0.90625
vt 0.027459375000000008 0.90625
vt 0 0.8787906249999999
vt 0.046875 0.859375
vt 0 0.972540625
vt 0 0.9337093750000001
vt 0.046875 0.953125
vt 0.1875 0.875
vt 0.21875 0.875
vt 0.21875 0.90625
vt 0.1875 0.90625
vt 0 0.8787906249999999
vt 0 0.8399593750000001
vt 0.046875 0.859375
vt 0.027459375000000008 1
vt 0 0.972540625
vt 0.046875 0.953125
vt 0.1875 0.78125
vt 0.21875 0.78125
vt 0.21875 0.8125
vt 0.1875 0.8125
vt 0 0.8399593750000001
vt 0.027459375000000008 0.8125
vt 0.046875 0.859375
vt 0.06629062499999999 1
vt 0.027459375000000008 1
vt 0.046875 0.953125
vt 0.1875 0.84375
vt 0.21875 0.84375
vt 0.21875 0.875
vt 0.1875 0.875
vt 0.027459375000000008 0.8125
vt 0.06629062499999999 0.8125
vt 0.046875 0.859375
vn 1 -2.220446049250313e-16 0
vn 1.5700924586837752e-16 0.7071067811865476 0.7071067811865475
vn -1 2.220446049250313e-16 0
vn 1 -2.220446049250313e-16 0
vn 2.220446049250313e-16 1 0
vn -1 2.220446049250313e-16 0
vn 1 -2.220446049250313e-16 0
vn 1.5700924586837754e-16 0.7071067811865477 -0.7071067811865475
vn -1 2.220446049250313e-16 0
vn 1 -2.220446049250313e-16 0
vn 3.9676639504385083e-32 1.7868769888726216e-16 -1
vn -1 2.220446049250313e-16 0
vn 1 -2.220446049250313e-16 0
vn -1.5700924586837737e-16 -0.7071067811865469 -0.7071067811865481
vn -1 2.220446049250313e-16 0
vn 1 -2.220446049250313e-16 0
vn -2.220446049250313e-16 -1 0
vn -1 2.220446049250313e-16 0
vn 1 -2.220446049250313e-16 0
vn -1.5700924586837757e-16 -0.7071067811865478 0.7071067811865474
vn -1 2.220446049250313e-16 0
vn 1 -2.220446049250313e-16 0
vn -3.967663950438503e-32 -1.7868769888726192e-16 1
vn -1 2.220446049250313e-16 0
usemtl m_815d0feb-a7e2-9791-6e43-744fe07e76df
f 19/61/19 17/62/19 15/63/19
f 17/64/20 19/65/20 20/66/20 18/67/20
f 18/68/21 20/69/21 16/70/21
f 21/71/22 19/72/22 15/73/22
f 19/74/23 21/75/23 22/76/23 20/77/23
f 20/78/24 22/79/24 16/80/24
f 23/81/25 21/82/25 15/83/25
f 21/84/26 23/85/26 24/86/26 22/87/26
f 22/88/27 24/89/27 16/90/27
f 25/91/28 23/92/28 15/93/28
f 23/94/29 25/95/29 26/96/29 24/97/29
f 24/98/30 26/99/30 16/100/30
f 27/101/31 25/102/31 15/103/31
f 25/104/32 27/105/32 28/106/32 26/107/32
f 26/108/33 28/109/33 16/110/33
f 29/111/34 27/112/34 15/113/34
f 27/114/35 29/115/35 30/116/35 28/117/35
f 28/118/36 30/119/36 16/120/36
f 31/121/37 29/122/37 15/123/37
f 29/124/38 31/125/38 32/126/38 30/127/38
f 30/128/39 32/129/39 16/130/39
f 17/131/40 31/132/40 15/133/40
f 31/134/41 17/135/41 18/136/41 32/137/41
f 32/138/42 18/139/42 16/140/42
o cylinder
v 0.012500000000000028 0.125 0.04726562499999999
v -0.012499999999999973 0.125 0.04726562499999999
v 0.012500000000000032 0.14053300858899107 0.13749999999999998
v -0.01249999999999997 0.14053300858899107 0.13749999999999998
v 0.012500000000000037 0.16249999999999998 0.06684368790904081
v -0.012499999999999964 0.16249999999999998 0.06684368790904081
v 0.012500000000000037 0.16249999999999998 0.02768756209095917
v -0.012499999999999964 0.16249999999999998 0.02768756209095917
v 0.012500000000000032 0.14053300858899107 -1.3877787807814457e-17
v -0.01249999999999997 0.14053300858899107 -1.3877787807814457e-17
v 0.012500000000000025 0.10946699141100895 -1.3877787807814457e-17
v -0.012499999999999976 0.10946699141100895 -1.3877787807814457e-17
v 0.01250000000000002 0.08750000000000001 0.027687562090959142
v -0.012499999999999982 0.08750000000000001 0.027687562090959142
v 0.01250000000000002 0.08750000000000001 0.06684368790904081
v -0.012499999999999982 0.08750000000000001 0.06684368790904081
v 0.012500000000000025 0.10946699141100891 0.09453124999999998
v -0.012499999999999976 0.10946699141100891 0.09453124999999998
vt 0.03828125 0.7756093749999999
vt 0.027296874999999998 0.8109375
vt 0.01953125 0.765821875
vt 0.2217125 0.76875
vt 0.258709375 0.76875
vt 0.258709375 0.78125
vt 0.2217125 0.78125
vt 0.214796875 0.93125
vt 0.22578125 0.966578125
vt 0.20703125 0.976365625
vt 0.03828125 0.7560312499999999
vt 0.03828125 0.7756093749999999
vt 0.01953125 0.765821875
vt 0.258709375 0.76875
vt 0.2782875 0.76875
vt 0.2782875 0.78125
vt 0.258709375 0.78125
vt 0.22578125 0.966578125
vt 0.22578125 0.98615625
vt 0.20703125 0.976365625
vt 0.027296874999999998 0.7421875
vt 0.03828125 0.7560312499999999
vt 0.01953125 0.765821875
vt 0.1875 0.75
vt 0.21875 0.75
vt 0.21875 0.78125
vt 0.1875 0.78125
vt 0.22578125 0.98615625
vt 0.214796875 1
vt 0.20703125 0.976365625
vt 0.011765625000000002 0.7421875
vt 0.027296874999999998 0.7421875
vt 0.01953125 0.765821875
vt 0.21875 0.84375
vt 0.25 0.84375
vt 0.25 0.875
vt 0.21875 0.875
vt 0.214796875 1
vt 0.199265625 1
vt 0.20703125 0.976365625
vt 0.0007812499999999972 0.7560312499999999
vt 0.011765625000000002 0.7421875
vt 0.01953125 0.765821875
vt 0.21875 0.78125
vt 0.25 0.78125
vt 0.25 0.8125
vt 0.21875 0.8125
vt 0.199265625 1
vt 0.18828125 0.98615625
vt 0.20703125 0.976365625
vt 0.0007812499999999972 0.7756093749999999
vt 0.0007812499999999972 0.7560312499999999
vt 0.01953125 0.765821875
vt 0.21875 0.8125
vt 0.25 0.8125
vt 0.25 0.84375
vt 0.21875 0.84375
vt 0.18828125 0.98615625
vt 0.18828125 0.966578125
vt 0.20703125 0.976365625
vt 0.011765625000000002 0.789453125
vt 0.0007812499999999972 0.7756093749999999
vt 0.01953125 0.765821875
vt 0.25 0.9875
vt 0.267671875 0.9875
vt 0.267671875 1
vt 0.25 1
vt 0.18828125 0.966578125
vt 0.199265625 0.952734375
vt 0.20703125 0.976365625
vt 0.027296874999999998 0.8109375
vt 0.011765625000000002 0.789453125
vt 0.01953125 0.765821875
vt 0.267671875 0.9875
vt 0.294184375 0.9875
vt 0.294184375 1
vt 0.267671875 1
vt 0.199265625 0.952734375
vt 0.214796875 0.93125
vt 0.20703125 0.976365625
vn 1 -2.220446049250313e-16 0
vn 2.1203353657749432e-16 0.9549141563204518 0.2968820541204874
vn -1 2.220446049250313e-16 0
vn 1 -2.220446049250313e-16 0
vn 2.220446049250313e-16 1 0
vn -1 2.220446049250313e-16 0
vn 1 -2.220446049250313e-16 0
vn 1.739472953809528e-16 0.7833889746597646 -0.6215317484903911
vn -1 2.220446049250313e-16 0
vn 1 -2.220446049250313e-16 0
vn 0 0 -1
vn -1 2.220446049250313e-16 0
vn 1 -2.220446049250313e-16 0
vn -1.7394729538095266e-16 -0.783388974659764 -0.6215317484903919
vn -1 2.220446049250313e-16 0
vn 1 -2.220446049250313e-16 0
vn -2.220446049250313e-16 -1 0
vn -1 2.220446049250313e-16 0
vn 1 -2.220446049250313e-16 0
vn -1.739472953809528e-16 -0.7833889746597646 0.621531748490391
vn -1 2.220446049250313e-16 0
vn 1 -2.220446049250313e-16 0
vn -1.799412707642637e-16 -0.8103834399625115 0.5858998892596982
vn -1 2.220446049250313e-16 0
usemtl m_815d0feb-a7e2-9791-6e43-744fe07e76df
f 37/141/43 35/142/43 33/143/43
f 35/144/44 37/145/44 38/146/44 36/147/44
f 36/148/45 38/149/45 34/150/45
f 39/151/46 37/152/46 33/153/46
f 37/154/47 39/155/47 40/156/47 38/157/47
f 38/158/48 40/159/48 34/160/48
f 41/161/49 39/162/49 33/163/49
f 39/164/50 41/165/50 42/166/50 40/167/50
f 40/168/51 42/169/51 34/170/51
f 43/171/52 41/172/52 33/173/52
f 41/174/53 43/175/53 44/176/53 42/177/53
f 42/178/54 44/179/54 34/180/54
f 45/181/55 43/182/55 33/183/55
f 43/184/56 45/185/56 46/186/56 44/187/56
f 44/188/57 46/189/57 34/190/57
f 47/191/58 45/192/58 33/193/58
f 45/194/59 47/195/59 48/196/59 46/197/59
f 46/198/60 48/199/60 34/200/60
f 49/201/61 47/202/61 33/203/61
f 47/204/62 49/205/62 50/206/62 48/207/62
f 48/208/63 50/209/63 34/210/63
f 35/211/64 49/212/64 33/213/64
f 49/214/65 35/215/65 36/216/65 50/217/65
f 50/218/66 36/219/66 34/220/66