# Made in Blockbench 4.9.4
mtllib monkey.mtl

o pyramid
v 0 0.625 0
v 0.375 0.0625 0.375
v 0.375 0.0625 -0.375
v -0.375 0.0625 0.375
v -0.375 0.0625 -0.375
v 0 0.4375 -0.0625
v 0 0.90625 -0.0016279713625527211
v 0.12039365470188217 0.5 0.25
v 0.10648609632961252 0.8125 0.21875000000000003
v 0.2705220865321328 0.5 0.06174490092936678
v 0.23927208653213278 0.8125 0.05280089267262987
v 0.2169418695587791 0.5 -0.20425536790752397
v 0.1918813153148779 0.8125 -0.1541342594197216
v 3.398138500607966e-17 0.5 -0.3087290660436856
v 3.0055944776585296e-17 0.8125 -0.24622906604368563
v -0.21694186955877903 0.5 -0.20425536790752402
v -0.19188131531487784 0.8125 -0.15413425941972161
v -0.2705220865321328 0.5 0.06174490092936672
v -0.23927208653213278 0.8125 0.052800892672629815
v -0.12039365470188222 0.5 0.24999999999999997
v -0.10648609632961256 0.8125 0.21874999999999997
v -0.21694186955877903 0.65625 -0.17300536790752402
v 3.398138500607966e-17 0.65625 -0.2774790660436856
v 0.2169418695587791 0.65625 -0.17300536790752397
v 0.2705220865321328 0.65625 0.06174490092936678
v 0.12039365470188217 0.65625 0.25
v -0.12039365470188222 0.65625 0.24999999999999997
v -0.2705220865321328 0.65625 0.06174490092936672
v -0.21694186955877903 0.578125 -0.20425536790752402
v 3.398138500607966e-17 0.578125 -0.3087290660436856
v 0.2169418695587791 0.578125 -0.20425536790752397
v 0.2705220865321328 0.578125 0.06174490092936678
v 0.12039365470188217 0.578125 0.25
v -0.12039365470188222 0.578125 0.24999999999999997
v -0.2705220865321328 0.578125 0.06174490092936672
v 0.25 0.75 -0.0625000000000001
v 0.25 0.75 -0.0312500000000001
v 0.2951054897804395 0.671875 -0.06250000000000008
v 0.2951054897804395 0.671875 -0.03125000000000008
v 0.34021097956087903 0.75 -0.0625000000000001
v 0.34021097956087903 0.75 -0.0312500000000001
v 0.2951054897804395 0.828125 -0.06250000000000011
v 0.2951054897804395 0.828125 -0.03125000000000011
v 0.20489451021956048 0.828125 -0.06250000000000011
v 0.20489451021956048 0.828125 -0.03125000000000011
v 0.15978902043912097 0.75 -0.0625000000000001
v 0.15978902043912097 0.75 -0.0312500000000001
v 0.20489451021956046 0.671875 -0.06250000000000008
v 0.20489451021956046 0.671875 -0.03125000000000008
v -0.25 0.75 -0.0625000000000001
v -0.25 0.75 -0.0312500000000001
v -0.2048945102195605 0.671875 -0.06250000000000008
v -0.2048945102195605 0.671875 -0.03125000000000008
v -0.15978902043912097 0.75 -0.0625000000000001
v -0.15978902043912097 0.75 -0.0312500000000001
v -0.2048945102195605 0.828125 -0.06250000000000011
v -0.2048945102195605 0.828125 -0.03125000000000011
v -0.2951054897804395 0.828125 -0.06250000000000011
v -0.2951054897804395 0.828125 -0.03125000000000011
v -0.34021097956087903 0.75 -0.0625000000000001
v -0.34021097956087903 0.75 -0.0312500000000001
v -0.29510548978043954 0.671875 -0.06250000000000008
v -0.29510548978043954 0.671875 -0.03125000000000008
v 0 0.5625000000000001 0
v -5.551115123125783e-17 0.0625 0.5303300858899107
v 0.5303300858899107 0.0625 5.551115123125783e-17
v -0.5303300858899107 0.0625 -5.551115123125783e-17
v 5.551115123125783e-17 0.0625 -0.5303300858899107
vt 0.1875 0.8125
vt 0.1875 1
vt 0 1
vt 0 0.8125
vt 0.35942417088839024 0.538304355393059
vt 0.5233883291116097 0.4473537928980913
vt 0.5233883291116097 0.640625
vt 0.20317417088839024 0.897679355393059
vt 0.36713832911160976 0.8067287928980913
vt 0.36713832911160976 1
vt 0.20317417088839024 0.678929355393059
vt 0.36713832911160976 0.5879787928980913
vt 0.36713832911160976 0.78125
vt 0.39067417088839024 0.897679355393059
vt 0.5546383291116097 0.8067287928980913
vt 0.5546383291116097 1
vt 0.34086077989082747 0.40513254112849373
vt 0.30255937499999996 0.45157246084369695
vt 0.2724614251386213 0.3719003141696815
vt 0.644915625 0.5625
vt 0.640975 0.5227078125
vt 0.701171875 0.5227078125
vt 0.6980484375 0.5624843749999999
vt 0.448496875 0.3293570471983659
vt 0.48424453156420316 0.3686682015544569
vt 0.42187545573402185 0.38922945973816026
vt 0.32994590031613447 0.33818047005990126
vt 0.34086077989082747 0.40513254112849373
vt 0.27246154247983284 0.37190037118059605
vt 0.58204375 0.99999375
vt 0.578125 0.9602875
vt 0.638321875 0.9602875
vt 0.6351171875 1
vt 0.48424453156420316 0.3686682015544569
vt 0.4790055662978632 0.42148243269535757
vt 0.42187593374255894 0.3892293021527413
vt 0.27752176698173725 0.30859375
vt 0.32994590031613447 0.33818047005990126
vt 0.27246067149909886 0.37190088209148264
vt 0.5817234375 0.8906125
vt 0.578125 0.850934375
vt 0.638321875 0.850934375
vt 0.6349328125 0.890625
vt 0.4790055662978632 0.42148243269535757
vt 0.43622723624324555 0.453125
vt 0.42187543772478103 0.38922902212072596
vt 0.2149759746838655 0.33818047005990126
vt 0.26740010801826275 0.30859375
vt 0.27246120350090114 0.37190088209148264
vt 0.007645312500000008 0.59375
vt 0.00425625000000001 0.5540578125
vt 0.064453125 0.5540578125
vt 0.06085468750000001 0.5937375
vt 0.40752276375675445 0.453125
vt 0.3647444337021368 0.42148243269535757
vt 0.42187456227521897 0.38922902212072596
vt 0.20406109510917253 0.40513254112849373
vt 0.2149759746838655 0.33818047005990126
vt 0.27246033252016716 0.37190037118059605
vt 0.5583216973711851 0.640625
vt 0.555037620305878 0.6009189863993906
vt 0.615234375 0.6007986366535463
vt 0.6113950163063525 0.6405126419343854
vt 0.3647444337021368 0.42148243269535757
vt 0.35950546843579684 0.3686682015544569
vt 0.42187406625744106 0.3892293021527413
vt 0.2423625 0.45157246084369695
vt 0.20406109510917253 0.40513254112849373
vt 0.2724604498613787 0.3719003141696815
vt 0.6437484375 0.6718578125
vt 0.640625 0.63208125
vt 0.700821875 0.63208125
vt 0.69688125 0.671875
vt 0.35950546843579684 0.3686682015544569
vt 0.395253125 0.3293570471983659
vt 0.42187454426597815 0.38922945973816026
vt 0.30255937499999996 0.45157246084369695
vt 0.2423625 0.45157246084369695
vt 0.2724609375 0.37189902334369696
vt 0.5974015625 0.78125
vt 0.593925 0.7414140625
vt 0.654121875 0.7414140625
vt 0.6506453125 0.78125
vt 0.395253125 0.3293570471983659
vt 0.448496875 0.3293570471983659
vt 0.421875 0.38923048469836596
vt 0.00425625000000001 0.5540578125
vt 0.0008671875000000051 0.533296875
vt 0.06106406250000001 0.533296875
vt 0.064453125 0.5540578125
vt 0.578125 0.850934375
vt 0.5815140625 0.8301734374999999
vt 0.6417109375 0.8301734374999999
vt 0.638321875 0.850934375
vt 0.578125 0.9602875
vt 0.578125 0.94075625
vt 0.6459609374999999 0.94075625
vt 0.638303125 0.9602875
vt 0.640975 0.5227078125
vt 0.640975 0.5031765625
vt 0.701171875 0.5031765625
vt 0.701171875 0.5227078125
vt 0.593925 0.7414140625
vt 0.593925 0.7218828125
vt 0.654121875 0.7218828125
vt 0.654121875 0.7414140625
vt 0.640625 0.63208125
vt 0.640625 0.61255
vt 0.700821875 0.61255
vt 0.700821875 0.63208125
vt 0.555037620305878 0.6009189863993906
vt 0.547379807805878 0.5813267988993907
vt 0.615215745305878 0.5813267988993907
vt 0.615215745305878 0.6007986738993906
vt 0.06106406250000001 0.513765625
vt 0.06106406250000001 0.533296875
vt 0.0008671875000000051 0.533296875
vt 0.0008671875000000051 0.513765625
vt 0.6417109375 0.8106421874999999
vt 0.6417109375 0.8301734374999999
vt 0.5815140625 0.8301734374999999
vt 0.5815140625 0.8106421874999999
vt 0.6459609374999999 0.921225
vt 0.6459609374999999 0.94075625
vt 0.578125 0.94075625
vt 0.578125 0.921225
vt 0.701171875 0.4836453125
vt 0.701171875 0.5031765625
vt 0.640975 0.5031765625
vt 0.640975 0.4836453125
vt 0.654121875 0.7023515625
vt 0.654121875 0.7218828125
vt 0.593925 0.7218828125
vt 0.593925 0.7023515625
vt 0.700821875 0.59301875
vt 0.700821875 0.61255
vt 0.640625 0.61255
vt 0.640625 0.59301875
vt 0.615215745305878 0.5617955488993907
vt 0.615215745305878 0.5813267988993907
vt 0.547379807805878 0.5813267988993907
vt 0.547379807805878 0.5617955488993907
vt 0.204009375 0.98046875
vt 0.2152859375 0.9609375
vt 0.2265625 0.98046875
vt 0.40625 0.78125
vt 0.40625 0.796875
vt 0.390625 0.796875
vt 0.390625 0.78125
vt 0.2378390625 0.8046875
vt 0.249115625 0.82421875
vt 0.2265625 0.82421875
vt 0.2152859375 1
vt 0.204009375 0.98046875
vt 0.2265625 0.98046875
vt 0.40625 0.75
vt 0.40625 0.765625
vt 0.390625 0.765625
vt 0.390625 0.75
vt 0.249115625 0.82421875
vt 0.2378390625 0.84375
vt 0.2265625 0.82421875
vt 0.23783906249999998 1
vt 0.2152859375 1
vt 0.2265625 0.98046875
vt 0.28125 1
vt 0.265625 1
vt 0.265625 0.984375
vt 0.28125 0.984375
vt 0.2378390625 0.84375
vt 0.2152859375 0.84375
vt 0.2265625 0.82421875
vt 0.249115625 0.98046875
vt 0.23783906249999998 1
vt 0.2265625 0.98046875
vt 0.125 0.59375
vt 0.125 0.578125
vt 0.140625 0.578125
vt 0.140625 0.59375
vt 0.2152859375 0.84375
vt 0.204009375 0.82421875
vt 0.2265625 0.82421875
vt 0.23783906249999998 0.9609375
vt 0.249115625 0.98046875
vt 0.2265625 0.98046875
vt 0.390625 0.859375
vt 0.390625 0.84375
vt 0.40625 0.84375
vt 0.40625 0.859375
vt 0.204009375 0.82421875
vt 0.2152859375 0.8046875
vt 0.2265625 0.82421875
vt 0.2152859375 0.9609375
vt 0.23783906249999998 0.9609375
vt 0.2265625 0.98046875
vt 0.265625 0.8125
vt 0.28125 0.8125
vt 0.28125 0.828125
vt 0.265625 0.828125
vt 0.2152859375 0.8046875
vt 0.2378390625 0.8046875
vt 0.2265625 0.82421875
vt 0.204009375 0.76171875
vt 0.2152859375 0.7421875
vt 0.2265625 0.76171875
vt 0.40625 0.625
vt 0.40625 0.640625
vt 0.390625 0.640625
vt 0.390625 0.625
vt 0.4253390625 0.9609375
vt 0.436615625 0.98046875
vt 0.4140625 0.98046875
vt 0.2152859375 0.78125
vt 0.204009375 0.76171875
vt 0.2265625 0.76171875
vt 0.40625 0.59375
vt 0.40625 0.609375
vt 0.390625 0.609375
vt 0.390625 0.59375
vt 0.436615625 0.98046875
vt 0.4253390625 1
vt 0.4140625 0.98046875
vt 0.2378390625 0.78125
vt 0.2152859375 0.78125
vt 0.2265625 0.76171875
vt 0.28125 0.796875
vt 0.265625 0.796875
vt 0.265625 0.78125
vt 0.28125 0.78125
vt 0.4253390625 1
vt 0.40278593749999997 1
vt 0.4140625 0.98046875
vt 0.249115625 0.76171875
vt 0.2378390625 0.78125
vt 0.2265625 0.76171875
vt 0.09375 0.59375
vt 0.09375 0.578125
vt 0.109375 0.578125
vt 0.109375 0.59375
vt 0.40278593749999997 1
vt 0.391509375 0.98046875
vt 0.4140625 0.98046875
vt 0.2378390625 0.7421875
vt 0.249115625 0.76171875
vt 0.2265625 0.76171875
vt 0.390625 0.828125
vt 0.390625 0.8125
vt 0.40625 0.8125
vt 0.40625 0.828125
vt 0.391509375 0.98046875
vt 0.40278593749999997 0.9609375
vt 0.4140625 0.98046875
vt 0.2152859375 0.7421875
vt 0.2378390625 0.7421875
vt 0.2265625 0.76171875
vt 0.296875 0.796875
vt 0.3125 0.796875
vt 0.3125 0.8125
vt 0.296875 0.8125
vt 0.40278593749999997 0.9609375
vt 0.4253390625 0.9609375
vt 0.4140625 0.98046875
vt 0.1875 0.609375
vt 0.1875 0.796875
vt 0 0.796875
vt 0 0.609375
vt 0.140625 0.46875
vt 0.328125 0.46875
vt 0.234375 0.625
vt 0.390625 0.65625
vt 0.578125 0.65625
vt 0.484375 0.8125
vt 0 0.34375
vt 0.1875 0.34375
vt 0.09375 0.5
vt 0.5 0.34375
vt 0.6875 0.34375
vt 0.59375 0.5
vn 0 -1 0
vn 0.8320502943378438 0.5547001962252293 0
vn 0 0.5547001962252293 0.8320502943378438
vn 0 0.5547001962252293 -0.8320502943378438
vn -0.8320502943378438 0.5547001962252293 0
vn 0.16527818797314975 -0.9773999048379284 0.13180495667129075
vn 0.7674803731599293 0.19072121458839134 0.6120451740845808
vn 0.3051210409332751 0.9204856946391792 0.24414593247568694
vn 0.24641309876721587 -0.9678930583733136 -0.049634789298351245
vn 0.9591295783756009 0.17929485538723997 -0.21891506735880678
vn 0.38054609176347387 0.9206462790984398 -0.08714987564961825
vn 0.11765731061703932 -0.9625307838085756 -0.24431792295943966
vn 0.4271394767069405 0.17563104545274655 -0.886964262702673
vn 0.16929258809757658 0.9202855667680252 -0.35272438987640087
vn -0.1176573106170393 -0.9625307838085756 -0.24431792295943974
vn -0.42700670680123826 0.17733771263053222 -0.886688563152662
vn -0.16929258809757655 0.9202855667680252 -0.35272438987640087
vn -0.24641309876721587 -0.9678930583733136 -0.049634789298351294
vn -0.9589611406166133 0.18024026989825434 -0.21887662253947718
vn -0.38054609176347376 0.9206462790984395 -0.08714987564961836
vn -0.16527818797314983 -0.9773999048379284 0.13180495667129072
vn -0.7677993881572177 0.18860891762897045 0.6122995800555725
vn -0.30512104093327513 0.9204856946391791 0.2441459324756869
vn -2.2606325191105226e-17 -0.9805806756909203 0.1961161351381841
vn -1.1303162595552615e-16 0.19611613513818413 0.9805806756909203
vn -1.0203308666855385e-16 0.9201965434496803 0.39145666608612095
vn -0.4081853093330507 0.33904221143863117 -0.8476055285965781
vn 0.4081853093330508 0.3390422114386311 -0.8476055285965779
vn 0.9803103188862461 0 -0.1974631071495295
vn 0.7818314824680298 0 0.6234898018587337
vn -1.1527009328006965e-16 0 1
vn -0.7818314824680301 0 0.6234898018587334
vn -0.9772666372985875 0.07874000834094823 -0.19685002085237058
vn -0.433883739117558 0 -0.9009688679024194
vn 0.4338837391175581 0 -0.9009688679024191
vn 0.9803103188862461 0 -0.1974631071495295
vn 0.7818314824680298 0 0.6234898018587337
vn -1.1527009328006965e-16 0 1
vn -0.7818314824680301 0 0.6234898018587334
vn -0.9803103188862461 0 -0.1974631071495297
vn 0 -1.7763568394002506e-16 -1
vn 0.8660254037844386 -0.5000000000000003 0
vn 0 1.7763568394002506e-16 1
vn 0 -1.7763568394002506e-16 -1
vn 0.8660254037844386 0.5000000000000003 0
vn 0 1.7763568394002506e-16 1
vn 0 -1.7763568394002506e-16 -1
vn 0 1 0
vn 0 1.7763568394002506e-16 1
vn 0 -1.7763568394002506e-16 -1
vn -0.8660254037844388 0.5000000000000001 0
vn 0 1.7763568394002506e-16 1
vn 0 -1.7763568394002506e-16 -1
vn -0.8660254037844389 -0.4999999999999999 0
vn 0 1.7763568394002506e-16 1
vn 0 -1.7763568394002506e-16 -1
vn 0 -1 0
vn 0 1.7763568394002506e-16 1
vn 0 -1.7763568394002506e-16 -1
vn 0.8660254037844386 -0.5000000000000003 0
vn 0 1.7763568394002506e-16 1
vn 0 -1.7763568394002506e-16 -1
vn 0.8660254037844386 0.5000000000000003 0
vn 0 1.7763568394002506e-16 1
vn 0 -1.7763568394002506e-16 -1
vn 0 1 0
vn 0 1.7763568394002506e-16 1
vn 0 -1.7763568394002506e-16 -1
vn -0.8660254037844386 0.5000000000000003 0
vn 0 1.7763568394002506e-16 1
vn 0 -1.7763568394002506e-16 -1
vn -0.8660254037844389 -0.4999999999999999 0
vn 0 1.7763568394002506e-16 1
vn 0 -1.7763568394002506e-16 -1
vn 0 -1 0
vn 0 1.7763568394002506e-16 1
vn 0 -1 0
vn 0.5656854249492381 0.5999999999999999 0.5656854249492381
vn -0.5656854249492381 0.5999999999999999 0.5656854249492381
vn 0.5656854249492381 0.5999999999999999 -0.5656854249492381
vn -0.5656854249492381 0.5999999999999999 -0.5656854249492381
usemtl m_92a82b83-ae30-cc47-5958-2131030f2355
f 3/1/1 2/2/1 4/3/1 5/4/1
f 2/5/2 3/6/2 1/7/2
f 4/8/3 2/9/3 1/10/3
f 3/11/4 5/12/4 1/13/4
f 5/14/5 4/15/5 1/16/5
f 10/17/6 8/18/6 6/19/6
f 9/20/7 26/21/7 25/22/7 11/23/7
f 9/24/8 11/25/8 7/26/8
f 12/27/9 10/28/9 6/29/9
f 11/30/10 25/31/10 24/32/10 13/33/10
f 11/34/11 13/35/11 7/36/11
f 14/37/12 12/38/12 6/39/12
f 13/40/13 24/41/13 23/42/13 15/43/13
f 13/44/14 15/45/14 7/46/14
f 16/47/15 14/48/15 6/49/15
f 15/50/16 23/51/16 22/52/16 17/53/16
f 15/54/17 17/55/17 7/56/17
f 18/57/18 16/58/18 6/59/18
f 17/60/19 22/61/19 28/62/19 19/63/19
f 17/64/20 19/65/20 7/66/20
f 20/67/21 18/68/21 6/69/21
f 19/70/22 28/71/22 27/72/22 21/73/22
f 19/74/23 21/75/23 7/76/23
f 8/77/24 20/78/24 6/79/24
f 21/80/25 27/81/25 26/82/25 9/83/25
f 21/84/26 9/85/26 7/86/26
f 23/87/27 30/88/27 29/89/27 22/90/27
f 24/91/28 31/92/28 30/93/28 23/94/28
f 25/95/29 32/96/29 31/97/29 24/98/29
f 26/99/30 33/100/30 32/101/30 25/102/30
f 27/103/31 34/104/31 33/105/31 26/106/31
f 28/107/32 35/108/32 34/109/32 27/110/32
f 22/111/33 29/112/33 35/113/33 28/114/33
f 16/115/34 29/116/34 30/117/34 14/118/34
f 14/119/35 30/120/35 31/121/35 12/122/35
f 12/123/36 31/124/36 32/125/36 10/126/36
f 10/127/37 32/128/37 33/129/37 8/130/37
f 8/131/38 33/132/38 34/133/38 20/134/38
f 20/135/39 34/136/39 35/137/39 18/138/39
f 18/139/40 35/140/40 29/141/40 16/142/40
f 40/143/41 38/144/41 36/145/41
f 38/146/42 40/147/42 41/148/42 39/149/42
f 39/150/43 41/151/43 37/152/43
f 42/153/44 40/154/44 36/155/44
f 40/156/45 42/157/45 43/158/45 41/159/45
f 41/160/46 43/161/46 37/162/46
f 44/163/47 42/164/47 36/165/47
f 42/166/48 44/167/48 45/168/48 43/169/48
f 43/170/49 45/171/49 37/172/49
f 46/173/50 44/174/50 36/175/50
f 44/176/51 46/177/51 47/178/51 45/179/51
f 45/180/52 47/181/52 37/182/52
f 48/183/53 46/184/53 36/185/53
f 46/186/54 48/187/54 49/188/54 47/189/54
f 47/190/55 49/191/55 37/192/55
f 38/193/56 48/194/56 36/195/56
f 48/196/57 38/197/57 39/198/57 49/199/57
f 49/200/58 39/201/58 37/202/58
f 54/203/59 52/204/59 50/205/59
f 52/206/60 54/207/60 55/208/60 53/209/60
f 53/210/61 55/211/61 51/212/61
f 56/213/62 54/214/62 50/215/62
f 54/216/63 56/217/63 57/218/63 55/219/63
f 55/220/64 57/221/64 51/222/64
f 58/223/65 56/224/65 50/225/65
f 56/226/66 58/227/66 59/228/66 57/229/66
f 57/230/67 59/231/67 51/232/67
f 60/233/68 58/234/68 50/235/68
f 58/236/69 60/237/69 61/238/69 59/239/69
f 59/240/70 61/241/70 51/242/70
f 62/243/71 60/244/71 50/245/71
f 60/246/72 62/247/72 63/248/72 61/249/72
f 61/250/73 63/251/73 51/252/73
f 52/253/74 62/254/74 50/255/74
f 62/256/75 52/257/75 53/258/75 63/259/75
f 63/260/76 53/261/76 51/262/76
f 66/263/77 65/264/77 67/265/77 68/266/77
f 65/267/78 66/268/78 64/269/78
f 67/270/79 65/271/79 64/272/79
f 66/273/80 68/274/80 64/275/80
f 68/276/81 67/277/81 64/278/81